<!-- <svg version="1.1" id="_x32_" xmlns="http://www.w3.org/2000/svg" xmlns:xlink="http://www.w3.org/1999/xlink" viewBox="0 0 512 512" xml:space="preserve" fill="#000000"><g id="SVGRepo_bgCarrier" stroke-width="0"></g><g id="SVGRepo_tracerCarrier" stroke-linecap="round" stroke-linejoin="round"></g><g id="SVGRepo_iconCarrier"> <style type="text/css"> .st0{fill:#000000;} </style> <g> <path class="st0" d="M442.784,66.747c-10.807-18.5-30.44-35.316-60.643-47.303C351.889,7.44,310.941,0.016,255.993,0 c-73.228,0.048-121.696,13.167-152.875,32.925c-15.559,9.88-26.712,21.504-33.917,33.822 c-7.205,12.302-10.382,25.201-10.367,37.243v259.272c0,41.656,33.759,75.446,75.462,75.462h22.196L104.313,512h41.704 l12.521-20.286h194.909L365.968,512h41.719l-52.18-73.276h22.197c41.703-0.016,75.446-33.806,75.462-75.462V103.99 C453.166,91.948,449.988,79.049,442.784,66.747z M170.62,472.145l12.789-20.702h145.182l12.79,20.702H170.62z M429.003,363.262 c-0.015,14.19-5.726,26.948-15.023,36.268c-9.313,9.305-22.07,15.023-36.276,15.031H134.297 c-14.205-0.008-26.963-5.726-36.276-15.031c-9.313-9.32-15.024-22.078-15.024-36.268V103.99c0-7.857,2.014-16.383,7.064-25.043 c7.582-12.939,22.26-26.507,48.719-37.039c26.412-10.516,64.451-17.753,117.213-17.736c70.396-0.04,114.474,12.892,139.928,29.142 c12.758,8.124,20.938,16.982,26.004,25.634c5.065,8.66,7.064,17.186,7.079,25.043V363.262z"></path> <path class="st0" d="M188.915,101.521H323.07c8.919,0,16.155-7.221,16.155-16.156c0-8.911-7.236-16.14-16.155-16.14H188.915 c-8.919,0-16.14,7.229-16.14,16.14C172.775,94.3,179.996,101.521,188.915,101.521z"></path> <circle class="st0" cx="160.017" cy="351.323" r="20.136"></circle> <circle class="st0" cx="351.983" cy="351.323" r="20.136"></circle> <rect x="132.016" y="153.669" class="st0" width="107.49" height="98.319"></rect> <rect x="267.696" y="153.669" class="st0" width="112.288" height="98.319"></rect> </g> </g></svg> -->
<svg viewBox="0 0 1024 1024" class="icon" version="1.1" xmlns="http://www.w3.org/2000/svg" fill="#000000"><g id="SVGRepo_bgCarrier" stroke-width="0"></g><g id="SVGRepo_tracerCarrier" stroke-linecap="round" stroke-linejoin="round"></g><g id="SVGRepo_iconCarrier"><path d="M316.3 805.2h391.2v29.1H316.3z" fill="#A4A9AD"></path><path d="M316.3 805.2v29.1h41l15.3-29.1zM707.5 805.2v29.1h-41l-15.3-29.1z" fill=""></path><path d="M249.7 887.7h524.4v29.1H249.7z" fill="#A4A9AD"></path><path d="M256.4 887.7l-6.7 12.8v16.3h64.2l15.3-29.1zM767.4 887.7l6.7 12.8v16.3h-64.2l-15.3-29.1z" fill=""></path><path d="M205.6 959.7c-5.5 0-8-4-5.4-8.9l141.6-269c2.6-4.9 8.7-6.8 13.6-4.2l39.2 20.6c4.9 2.6 6.8 8.7 4.2 13.6L273 950.8c-2.6 4.9-9.2 8.9-14.8 8.9h-52.6z" fill="#333E48"></path><path d="M346.5 672.9l-62 117.8h72.8l46.2-87.8z" fill=""></path><path d="M818.2 959.7c5.5 0 8-4 5.4-8.9L682 681.8c-2.6-4.9-8.7-6.8-13.6-4.2l-39.2 20.6c-4.9 2.6-6.8 8.7-4.2 13.6l125.8 239c2.6 4.9 9.2 8.9 14.8 8.9h52.6z" fill="#333E48"></path><path d="M677.3 672.9l62 117.8h-72.8l-46.2-87.8z" fill=""></path><path d="M767.5 104.3c0-22.1-18.1-40.3-40.3-40.3H296.6c-22.1 0-40.3 18.1-40.3 40.3v609.9c0 22.1 18.1 40.3 40.3 40.3h430.6c22.1 0 40.3-18.1 40.3-40.3V104.3z" fill="#FF5959"></path><path d="M355.9 637.4m-45.3 0a45.3 45.3 0 1 0 90.6 0 45.3 45.3 0 1 0-90.6 0Z" fill=""></path><path d="M667.9 637.4m-45.3 0a45.3 45.3 0 1 0 90.6 0 45.3 45.3 0 1 0-90.6 0Z" fill=""></path><path d="M713.2 282.6c0-16.6-13.6-30.2-30.2-30.2H340.8c-16.6 0-30.2 13.6-30.2 30.2v212c0 16.6 13.6 30.2 30.2 30.2H683c16.6 0 30.2-13.6 30.2-30.2v-212z" fill="#FFFFFF"></path><path d="M604.5 524.9c0-51.1-41.5-92.6-92.6-92.6-51.1 0-92.6 41.5-92.6 92.6h185.2z" fill="#A4A9AD"></path><path d="M683 252.4H340.8c-16.6 0-30.2 13.6-30.2 30.2v50.1c0-16.6 13.6-30.2 30.2-30.2H683c16.6 0 30.2 13.6 30.2 30.2v-50.1c0-16.6-13.6-30.2-30.2-30.2z" fill=""></path><path d="M340.8 267c-8.6 0-15.7 7-15.7 15.7v212c0 8.6 7 15.7 15.7 15.7H683c8.6 0 15.7-7 15.7-15.7v-212c0-8.6-7-15.7-15.7-15.7H340.8zM683 539.4H340.8c-24.7 0-44.7-20.1-44.7-44.7v-212c0-24.7 20.1-44.7 44.7-44.7H683c24.7 0 44.7 20.1 44.7 44.7v212c0 24.6-20 44.7-44.7 44.7zM713.2 154.7c0-16.6-13.6-30.2-30.2-30.2H340.8c-16.6 0-30.2 13.6-30.2 30.2v12.8c0 16.6 13.6 30.2 30.2 30.2H683c16.6 0 30.2-13.6 30.2-30.2v-12.8z" fill="#333E48"></path><path d="M683 124.5H340.8c-16.6 0-30.2 13.6-30.2 30.2v12.8c0 1.7 0.2 3.4 0.5 5 2.4-14.2 14.8-25.2 29.7-25.2H683c14.9 0 27.3 10.9 29.7 25.2 0.3-1.6 0.5-3.3 0.5-5v-12.8c0-16.6-13.6-30.2-30.2-30.2z" fill=""></path><path d="M355.9 615.9m-45.3 0a45.3 45.3 0 1 0 90.6 0 45.3 45.3 0 1 0-90.6 0Z" fill="#FFB819"></path><path d="M667.9 615.9m-45.3 0a45.3 45.3 0 1 0 90.6 0 45.3 45.3 0 1 0-90.6 0Z" fill="#FFB819"></path><path d="M600.9 754.5v-51.3c0-16.6-13.6-30.2-30.2-30.2H453.1c-16.6 0-30.2 13.6-30.2 30.2v51.3h178z" fill="#D1D3D3"></path><path d="M422.9 701.2h177.9v29.1H422.9z" fill="#A4A9AD"></path><path d="M590.4 620.9h-157c-8 0-14.5-6.5-14.5-14.5s6.5-14.5 14.5-14.5h157c8 0 14.5 6.5 14.5 14.5s-6.5 14.5-14.5 14.5z" fill="#FFFFFF"></path></g></svg>